<svg width="24" height="24" viewBox="0 0 24 24" fill="none" xmlns="http://www.w3.org/2000/svg">
<g clip-path="url(#clip0_219_681)">
<path d="M7 6V3C7 2.73478 7.10536 2.48043 7.29289 2.29289C7.48043 2.10536 7.73478 2 8 2H20C20.2652 2 20.5196 2.10536 20.7071 2.29289C20.8946 2.48043 21 2.73478 21 3V17C21 17.2652 20.8946 17.5196 20.7071 17.7071C20.5196 17.8946 20.2652 18 20 18H17V21C17 21.552 16.55 22 15.993 22H4.007C3.87513 22.0008 3.7444 21.9755 3.62232 21.9256C3.50025 21.8757 3.38923 21.8022 3.29566 21.7093C3.20208 21.6164 3.12779 21.5059 3.07705 21.3841C3.02632 21.2624 3.00013 21.1319 3 21L3.003 7C3.003 6.448 3.453 6 4.01 6H7ZM5.50287 8C5.22678 8 5.00294 8.22378 5.00287 8.49988L5.00012 19.4999C5.00006 19.7761 5.22393 20 5.50012 20H14.5C14.7761 20 15 19.7761 15 19.5V8.5C15 8.22386 14.7761 8 14.5 8H5.50287ZM9 6H16C16.5523 6 17 6.44772 17 7V16H18.5C18.7761 16 19 15.7761 19 15.5V4.5C19 4.22386 18.7761 4 18.5 4H9.5C9.22386 4 9 4.22386 9 4.5V6Z" fill="currentColor"/>
</g>
<defs>
<clipPath id="clip0_219_681">
<rect width="24" height="24" fill="white"/>
</clipPath>
</defs>
</svg>
