<svg width="18" height="18" viewBox="0 0 18 18" fill="none" xmlns="http://www.w3.org/2000/svg">
<g clip-path="url(#clip0_38_1230)">
<path d="M4.60339 12.0001C4.736 12.0001 4.86318 11.9474 4.95695 11.8536L12.0634 4.74712C12.2587 4.55185 12.2587 4.23527 12.0634 4.04001L11.7101 3.68662C11.5148 3.49135 11.1982 3.49135 11.0029 3.68662L3.89645 10.7931C3.80268 10.8869 3.75 11.0141 3.75 11.1467V12.0001H4.60339ZM5.5787 13.3536C5.48493 13.4474 5.35775 13.5001 5.22514 13.5001H2.75C2.47386 13.5001 2.25 13.2762 2.25 13.0001V10.5249C2.25 10.3923 2.30268 10.2651 2.39645 10.1714L10.8263 1.74156C10.9669 1.60096 11.1576 1.52197 11.3565 1.52197C11.5554 1.52197 11.7461 1.60096 11.8868 1.74156L14.0085 3.86331C14.1491 4.00396 14.2281 4.19469 14.2281 4.39356C14.2281 4.59244 14.1491 4.78317 14.0085 4.92381L5.5787 13.3536ZM2.25 15.7501C2.25 15.3358 2.58579 15.0001 3 15.0001H15C15.4142 15.0001 15.75 15.3358 15.75 15.7501C15.75 16.1643 15.4142 16.5001 15 16.5001H3C2.58579 16.5001 2.25 16.1643 2.25 15.7501Z" fill="#FF6464"/>
</g>
<defs>
<clipPath id="clip0_38_1230">
<rect width="18" height="18" fill="white"/>
</clipPath>
</defs>
</svg>
