<svg width="18" height="18" viewBox="0 0 18 18" fill="none" xmlns="http://www.w3.org/2000/svg">
<g clip-path="url(#clip0_38_1163)">
<path d="M13.4115 14.4727C12.0924 15.3093 10.562 15.7524 8.99999 15.7499C4.95599 15.7499 1.59149 12.8399 0.885742 8.99993C1.20826 7.25297 2.08696 5.6571 3.39074 4.45043L1.57499 2.63642C1.28177 2.34348 1.28166 1.86826 1.57474 1.57518C1.86773 1.28219 2.34275 1.2822 2.63573 1.5752L16.4239 15.3641C16.7169 15.6571 16.7168 16.1322 16.4237 16.4251C16.1307 16.7179 15.6559 16.7177 15.363 16.4248L13.4115 14.4727ZM4.45124 5.51243C3.432 6.43912 2.72198 7.65652 2.41724 8.99993C2.65146 10.0248 3.12169 10.9808 3.79049 11.7919C4.4593 12.603 5.30821 13.2467 6.26966 13.6719C7.2311 14.0971 8.27853 14.292 9.32856 14.241C10.3786 14.1901 11.4022 13.8947 12.318 13.3784L10.797 11.8574C10.1495 12.2653 9.38264 12.441 8.62217 12.3558C7.8617 12.2705 7.15277 11.9294 6.61167 11.3882C6.07057 10.8471 5.72941 10.1382 5.64416 9.37775C5.55891 8.61728 5.73463 7.85041 6.14249 7.20293L4.45124 5.51243ZM9.68549 10.7459L7.25399 8.31443C7.12054 8.65413 7.08913 9.02539 7.16362 9.38269C7.23811 9.73998 7.41526 10.0678 7.67333 10.3258C7.93141 10.5839 8.25919 10.7611 8.61648 10.8355C8.97378 10.91 9.34504 10.8786 9.68474 10.7452L9.68549 10.7459ZM15.6052 12.4439L14.532 11.3714C15.0333 10.6569 15.3903 9.85132 15.5827 8.99993C15.3789 8.10722 14.9957 7.26529 14.4564 6.5253C13.917 5.78531 13.2328 5.16272 12.4454 4.69538C11.658 4.22804 10.7837 3.9257 9.87579 3.80675C8.96787 3.6878 8.04525 3.75471 7.16399 4.00343L5.98049 2.81993C6.91574 2.45243 7.93499 2.24993 8.99999 2.24993C13.044 2.24993 16.4085 5.15993 17.1142 8.99993C16.8844 10.2492 16.3679 11.4281 15.6052 12.4439ZM8.79224 5.63093C9.26962 5.60143 9.74783 5.67373 10.1951 5.84304C10.6425 6.01235 11.0487 6.27481 11.3869 6.61302C11.7251 6.95122 11.9876 7.35745 12.1569 7.80477C12.3262 8.25209 12.3985 8.73029 12.369 9.20768L8.79224 5.63093Z" fill="#FF6464"/>
</g>
<defs>
<clipPath id="clip0_38_1163">
<rect width="18" height="18" fill="white"/>
</clipPath>
</defs>
</svg>
