<svg viewBox="0 0 18 18" fill="none" xmlns="http://www.w3.org/2000/svg">
<g clip-path="url(#clip0_38_1229)">
<path d="M13.5 6H15C15.1989 6 15.3897 6.07902 15.5303 6.21967C15.671 6.36032 15.75 6.55109 15.75 6.75V15.75C15.75 15.9489 15.671 16.1397 15.5303 16.2803C15.3897 16.421 15.1989 16.5 15 16.5H3C2.80109 16.5 2.61032 16.421 2.46967 16.2803C2.32902 16.1397 2.25 15.9489 2.25 15.75V6.75C2.25 6.55109 2.32902 6.36032 2.46967 6.21967C2.61032 6.07902 2.80109 6 3 6H4.5V5.25C4.5 4.05653 4.97411 2.91193 5.81802 2.06802C6.66193 1.22411 7.80653 0.75 9 0.75C10.1935 0.75 11.3381 1.22411 12.182 2.06802C13.0259 2.91193 13.5 4.05653 13.5 5.25V6ZM4.25 7.5C3.97386 7.5 3.75 7.72386 3.75 8V14.5C3.75 14.7761 3.97386 15 4.25 15H13.75C14.0261 15 14.25 14.7761 14.25 14.5V8C14.25 7.72386 14.0261 7.5 13.75 7.5H4.25ZM8.25 11.25C8.25 10.8358 8.58579 10.5 9 10.5C9.41421 10.5 9.75 10.8358 9.75 11.25C9.75 11.6642 9.41421 12 9 12C8.58579 12 8.25 11.6642 8.25 11.25ZM5.25 11.25C5.25 10.8358 5.58579 10.5 6 10.5C6.41421 10.5 6.75 10.8358 6.75 11.25C6.75 11.6642 6.41421 12 6 12C5.58579 12 5.25 11.6642 5.25 11.25ZM11.25 11.25C11.25 10.8358 11.5858 10.5 12 10.5C12.4142 10.5 12.75 10.8358 12.75 11.25C12.75 11.6642 12.4142 12 12 12C11.5858 12 11.25 11.6642 11.25 11.25ZM12 6V5.25C12 4.45435 11.6839 3.69129 11.1213 3.12868C10.5587 2.56607 9.79565 2.25 9 2.25C8.20435 2.25 7.44129 2.56607 6.87868 3.12868C6.31607 3.69129 6 4.45435 6 5.25V6H12Z" fill="#FF6464"/>
</g>
<defs>
<clipPath id="clip0_38_1229">
<rect width="18" height="18" fill="white"/>
</clipPath>
</defs>
</svg>
