<svg width="34" height="34" viewBox="0 0 34 34" fill="none" xmlns="http://www.w3.org/2000/svg">
<g clip-path="url(#clip0_303_28)">
<path d="M25.3661 13.5309C26.081 15.0837 26.3389 16.808 26.1095 18.502C25.8802 20.196 25.1731 21.7897 24.0711 23.0965C22.9691 24.4033 21.5177 25.3693 19.8867 25.8814C18.2558 26.3934 16.5127 26.4304 14.8615 25.9879C13.2103 25.5455 11.7192 24.6419 10.5628 23.383C9.40638 22.1241 8.63241 20.5618 8.33145 18.8791C8.0305 17.1963 8.21501 15.4627 8.8634 13.8809C9.51179 12.2992 10.5972 10.9349 11.9927 9.94754C11.8038 11.6135 12.2191 13.2919 13.163 14.6775C14.107 16.0631 15.5169 17.0639 17.1364 17.4978C18.7559 17.9318 20.4773 17.77 21.9876 17.042C23.4979 16.314 24.6968 15.0681 25.3661 13.5309Z" stroke="white" stroke-width="2" stroke-linecap="round" stroke-linejoin="round"/>
</g>
<defs>
<clipPath id="clip0_303_28">
<rect width="24" height="24" fill="white" transform="translate(0.784607 12.9545) rotate(-30)"/>
</clipPath>
</defs>
</svg>
