<svg width="130" height="146" viewBox="0 0 130 146" fill="none" xmlns="http://www.w3.org/2000/svg">
<g clip-path="url(#clip0_38_1985)">
<path d="M72.6474 34.6951H71.8469V12.7191C71.8469 9.34579 70.5096 6.11064 68.1293 3.72534C65.749 1.34005 62.5206 4.25646e-06 59.1544 0H12.6925C11.0257 -4.21509e-06 9.37525 0.328981 7.83533 0.968171C6.2954 1.60736 4.89618 2.54424 3.71757 3.72531C2.53896 4.90639 1.60403 6.30852 0.966171 7.85167C0.328309 9.39482 3.68054e-06 11.0488 0 12.7191V133.281C-1.57737e-06 134.951 0.328295 136.605 0.966153 138.148C1.60401 139.691 2.53894 141.094 3.71755 142.275C4.89616 143.456 6.29537 144.393 7.83529 145.032C9.37522 145.671 11.0257 146 12.6925 146H59.1543C62.5206 146 65.749 144.66 68.1293 142.275C70.5096 139.889 71.8468 136.654 71.8469 133.281V50.3379H72.6474V34.6951Z" fill="#F1F1F1"/>
<path d="M59.6666 3.3091H53.6018C53.8807 3.99431 53.9872 4.73775 53.9118 5.47391C53.8365 6.21006 53.5816 6.91636 53.1697 7.53056C52.7578 8.14477 52.2015 8.64803 51.5497 8.99603C50.898 9.34403 50.1709 9.52607 49.4324 9.52613H22.815C22.0766 9.52607 21.3494 9.34403 20.6977 8.99603C20.046 8.64804 19.4896 8.14476 19.0777 7.53056C18.6658 6.91635 18.411 6.21005 18.3356 5.47389C18.2602 4.73773 18.3667 3.9943 18.6456 3.30908H12.9811C10.4672 3.30908 8.05627 4.30981 6.27868 6.09111C4.50109 7.87242 3.50245 10.2884 3.50244 12.8075V133.193C3.50244 135.712 4.50108 138.128 6.27866 139.909C8.05625 141.69 10.4672 142.691 12.9811 142.691H59.6666C60.9114 142.691 62.1439 142.445 63.2939 141.968C64.4439 141.491 65.4889 140.791 66.369 139.909C67.2492 139.027 67.9474 137.98 68.4237 136.827C68.9001 135.675 69.1453 134.44 69.1453 133.193V12.8076C69.1453 11.5602 68.9001 10.3251 68.4237 9.17265C67.9474 8.02024 67.2492 6.97314 66.369 6.09113C65.4889 5.20911 64.4439 4.50946 63.2939 4.03212C62.1439 3.55478 60.9114 3.3091 59.6666 3.3091Z" fill="white"/>
<path d="M65.2928 97.8617H9.3154C9.04058 97.8614 8.7771 97.7518 8.58277 97.5571C8.38844 97.3624 8.27913 97.0983 8.27881 96.8229V82.9084C8.27913 82.633 8.38844 82.369 8.58277 82.1742C8.7771 81.9795 9.04058 81.8699 9.3154 81.8696H65.2928C65.5676 81.8699 65.8311 81.9795 66.0254 82.1742C66.2197 82.369 66.329 82.633 66.3294 82.9084V96.8231C66.329 97.0985 66.2197 97.3625 66.0253 97.5572C65.831 97.7519 65.5676 97.8614 65.2928 97.8617ZM9.3154 82.2851C9.15049 82.2852 8.99237 82.351 8.87576 82.4678C8.75915 82.5847 8.69357 82.7431 8.69341 82.9084V96.8231C8.69357 96.9884 8.75915 97.1468 8.87576 97.2637C8.99237 97.3806 9.15049 97.4463 9.3154 97.4464H65.2928C65.4577 97.4463 65.6158 97.3806 65.7324 97.2637C65.849 97.1468 65.9146 96.9884 65.9148 96.8231V82.9084C65.9146 82.7431 65.849 82.5847 65.7324 82.4678C65.6158 82.351 65.4577 82.2852 65.2928 82.2851H9.3154Z" fill="#F1F1F1"/>
<path d="M16.5715 94.2284C18.9761 94.2284 20.9253 92.2751 20.9253 89.8656C20.9253 87.456 18.9761 85.5027 16.5715 85.5027C14.167 85.5027 12.2178 87.456 12.2178 89.8656C12.2178 92.2751 14.167 94.2284 16.5715 94.2284Z" fill="#F1F1F1"/>
<path d="M26.6267 86.9571C26.4364 86.9603 26.2549 87.0383 26.1214 87.1743C25.9879 87.3103 25.9131 87.4935 25.9131 87.6842C25.9131 87.875 25.9879 88.0582 26.1214 88.1942C26.2549 88.3302 26.4364 88.4082 26.6267 88.4113H60.8351C61.0275 88.4151 61.2135 88.342 61.3522 88.2083C61.4909 88.0746 61.5709 87.8911 61.5746 87.6983C61.5783 87.5055 61.5055 87.3191 61.372 87.1801C61.2386 87.0411 61.0555 86.9609 60.8631 86.9572L60.8589 86.9571C60.851 86.957 60.843 86.957 60.8351 86.9571H26.6267Z" fill="#F1F1F1"/>
<path d="M26.6267 91.3199C26.4364 91.3231 26.2549 91.4011 26.1214 91.5371C25.9879 91.6731 25.9131 91.8563 25.9131 92.047C25.9131 92.2378 25.9879 92.4209 26.1214 92.557C26.2549 92.693 26.4364 92.771 26.6267 92.7742H60.8351C61.0272 92.7768 61.2125 92.703 61.3504 92.569C61.4884 92.4349 61.5676 92.2515 61.5707 92.0589C61.5739 91.8664 61.5007 91.6805 61.3673 91.542C61.2338 91.4034 61.051 91.3236 60.8589 91.3199C60.851 91.3198 60.843 91.3198 60.8351 91.3199H26.6267Z" fill="#F1F1F1"/>
<path d="M65.2928 121.131H9.3154C9.04058 121.13 8.7771 121.021 8.58277 120.826C8.38844 120.631 8.27913 120.367 8.27881 120.092V106.177C8.27913 105.902 8.38844 105.638 8.58277 105.443C8.7771 105.248 9.04058 105.139 9.3154 105.138H65.2928C65.5676 105.139 65.8311 105.248 66.0254 105.443C66.2197 105.638 66.329 105.902 66.3294 106.177V120.092C66.329 120.367 66.2197 120.631 66.0253 120.826C65.831 121.021 65.5676 121.13 65.2928 121.131ZM9.3154 105.554C9.15049 105.554 8.99237 105.62 8.87576 105.737C8.75915 105.853 8.69357 106.012 8.69341 106.177V120.092C8.69357 120.257 8.75915 120.416 8.87576 120.533C8.99237 120.649 9.15049 120.715 9.3154 120.715H65.2928C65.4577 120.715 65.6158 120.649 65.7324 120.533C65.849 120.416 65.9146 120.257 65.9148 120.092V106.177C65.9146 106.012 65.849 105.853 65.7324 105.737C65.6158 105.62 65.4577 105.554 65.2928 105.554H9.3154Z" fill="#F1F1F1"/>
<path d="M16.5715 117.497C18.9761 117.497 20.9253 115.544 20.9253 113.134C20.9253 110.725 18.9761 108.771 16.5715 108.771C14.167 108.771 12.2178 110.725 12.2178 113.134C12.2178 115.544 14.167 117.497 16.5715 117.497Z" fill="#F1F1F1"/>
<path d="M26.6267 110.226C26.4364 110.229 26.2549 110.307 26.1214 110.443C25.9879 110.579 25.9131 110.762 25.9131 110.953C25.9131 111.144 25.9879 111.327 26.1214 111.463C26.2549 111.599 26.4364 111.677 26.6267 111.68H60.8351C61.0272 111.683 61.2125 111.609 61.3504 111.475C61.4884 111.341 61.5676 111.157 61.5707 110.965C61.5739 110.772 61.5007 110.587 61.3673 110.448C61.2338 110.309 61.051 110.23 60.8589 110.226C60.851 110.226 60.843 110.226 60.8351 110.226H26.6267Z" fill="#F1F1F1"/>
<path d="M26.6267 114.589C26.4364 114.592 26.2549 114.67 26.1214 114.806C25.9879 114.942 25.9131 115.125 25.9131 115.316C25.9131 115.507 25.9879 115.69 26.1214 115.826C26.2549 115.962 26.4364 116.04 26.6267 116.043H60.8351C61.0272 116.046 61.2125 115.972 61.3504 115.838C61.4884 115.704 61.5676 115.52 61.5707 115.328C61.5739 115.135 61.5007 114.949 61.3673 114.811C61.2338 114.672 61.051 114.592 60.8589 114.589C60.851 114.589 60.843 114.589 60.8351 114.589H26.6267Z" fill="#F1F1F1"/>
<path d="M36.1258 68.9866C30.9044 68.9888 25.896 66.9124 22.2023 63.2141C18.5087 59.5158 16.4324 54.4986 16.4302 49.2662V49.2498C16.4302 49.2084 16.4302 49.1649 16.4326 49.1236C16.4926 38.3149 25.3275 29.5127 36.1258 29.5127C41.3494 29.5121 46.3593 31.5909 50.0534 35.2919C53.7475 38.9929 55.8231 44.0128 55.8237 49.2473C55.8243 54.4819 53.7498 59.5023 50.0566 63.2041C46.3634 66.9059 41.3539 68.9858 36.1303 68.9864H36.1258V68.9866ZM36.1258 29.9278C31.0354 29.9392 26.1552 31.9631 22.5454 35.5597C18.9356 39.1563 16.888 44.0351 16.8474 49.136C16.8452 49.1802 16.8452 49.2163 16.8452 49.2492C16.8447 53.0711 17.9752 56.8073 20.0937 59.9853C22.2122 63.1634 25.2235 65.6405 28.747 67.1035C32.2704 68.5665 36.1476 68.9497 39.8883 68.2046C43.629 67.4594 47.0652 65.6194 49.7624 62.9173C52.4596 60.2151 54.2966 56.7722 55.0411 53.0238C55.7856 49.2755 55.4042 45.39 53.9451 41.8589C52.4861 38.3277 50.0148 35.3095 46.8439 33.1857C43.6731 31.062 39.9449 29.9282 36.131 29.9278H36.1258Z" fill="#F1F1F1"/>
<path d="M63.0833 92.8511C67.5059 92.8511 71.091 89.2584 71.091 84.8267C71.091 80.3949 67.5059 76.8022 63.0833 76.8022C58.6608 76.8022 55.0757 80.3949 55.0757 84.8267C55.0757 89.2584 58.6608 92.8511 63.0833 92.8511Z" fill="white"/>
<path d="M60.3021 88.4368C60.2884 88.4368 60.2747 88.4367 60.2609 88.4364H55.9568C55.4106 88.4277 54.8898 88.2043 54.5066 87.8143C54.1233 87.4243 53.9084 86.899 53.9082 86.3516C53.908 85.8043 54.1225 85.2788 54.5054 84.8884C54.8883 84.4981 55.409 84.2743 55.9551 84.2652H60.2628C60.284 84.2648 60.3069 84.2648 60.3297 84.2652C60.8791 84.2728 61.4033 84.4978 61.7878 84.8911C62.1724 85.2844 62.3861 85.8141 62.3825 86.3647C62.3789 86.9153 62.1581 87.4421 61.7684 87.8303C61.3787 88.2185 60.8516 88.4365 60.3021 88.4368Z" fill="#FF6464"/>
<path d="M130 145.512H65.1313V145.962H130V145.512Z" fill="#545974"/>
<path d="M69.1282 107.473C69.0773 107.394 69.035 107.309 69.0022 107.221L67.9685 104.447C67.8482 104.123 67.8611 103.765 68.0042 103.45C68.1474 103.135 68.4092 102.891 68.7323 102.769L91.8028 94.1367C92.1261 94.0161 92.484 94.0289 92.7979 94.1724C93.1118 94.3159 93.356 94.5783 93.477 94.902L94.5106 97.676C94.5704 97.8364 94.598 98.007 94.592 98.1782C94.586 98.3493 94.5464 98.5176 94.4754 98.6734C94.4045 98.8291 94.3036 98.9694 94.1786 99.0861C94.0536 99.2029 93.9068 99.2938 93.7467 99.3537L70.6764 107.986C70.3987 108.09 70.0938 108.096 69.8124 108.003C69.5309 107.909 69.2895 107.723 69.1282 107.473Z" fill="#FF6464"/>
<path d="M91.7295 93.4198L82.3479 97.1687C82.0522 97.2578 81.8022 97.4575 81.6496 97.7264C81.4971 97.9954 81.4537 98.3128 81.5285 98.613L82.6172 102.981C82.6602 103.154 82.7409 103.315 82.8533 103.452C82.9658 103.59 83.1073 103.701 83.2676 103.777C83.428 103.853 83.6032 103.893 83.7807 103.893C83.9582 103.894 84.1335 103.854 84.2941 103.779L93.7016 99.3414C93.9996 99.2294 94.2412 99.0035 94.3734 98.7134C94.5057 98.4232 94.5178 98.0924 94.4072 97.7933L93.2763 94.127C93.1645 93.8279 92.9389 93.5854 92.6489 93.4528C92.3589 93.3202 92.0282 93.3083 91.7295 93.4198Z" fill="white"/>
<path d="M108.898 120.635C108.603 120.669 108.306 120.601 108.055 120.443C107.804 120.284 107.615 120.045 107.518 119.764L99.4877 96.4355C99.4319 96.2736 99.4086 96.1023 99.4189 95.9314C99.4292 95.7605 99.473 95.5933 99.5479 95.4393C99.6227 95.2854 99.727 95.1477 99.8549 95.0342C99.9829 94.9206 100.132 94.8335 100.293 94.7776L103.087 93.812C103.413 93.6995 103.77 93.7213 104.081 93.8727C104.391 94.0241 104.628 94.2927 104.741 94.6195L112.772 117.948C112.884 118.275 112.862 118.634 112.711 118.944C112.56 119.255 112.292 119.493 111.966 119.606L109.173 120.572C109.084 120.603 108.991 120.624 108.898 120.635Z" fill="#FF6464"/>
<path d="M105.34 94.2203L108.422 103.859C108.541 104.144 108.547 104.464 108.437 104.753C108.327 105.042 108.11 105.278 107.831 105.411L103.775 107.348C103.615 107.425 103.44 107.465 103.263 107.465C103.085 107.466 102.91 107.427 102.749 107.352C102.588 107.276 102.446 107.166 102.333 107.029C102.22 106.892 102.138 106.731 102.095 106.559L99.5261 96.4628C99.4228 96.1611 99.443 95.8306 99.5822 95.5438C99.7215 95.257 99.9685 95.0371 100.269 94.9324L103.811 93.4743C104.113 93.3704 104.443 93.3906 104.73 93.5304C105.016 93.6703 105.236 93.9184 105.34 94.2203Z" fill="white"/>
<path d="M96.0079 145.644H93.0532C92.7082 145.643 92.3775 145.506 92.1335 145.262C91.8896 145.017 91.7524 144.686 91.752 144.34V119.662C91.7524 119.316 91.8896 118.985 92.1335 118.74C92.3775 118.496 92.7082 118.358 93.0532 118.358H96.0079C96.3529 118.358 96.6836 118.496 96.9276 118.74C97.1715 118.985 97.3087 119.316 97.3091 119.662V144.34C97.3087 144.686 97.1715 145.017 96.9276 145.262C96.6836 145.506 96.3529 145.643 96.0079 145.644Z" fill="white"/>
<path d="M101.852 145.644H98.8969C98.552 145.643 98.2212 145.506 97.9773 145.262C97.7333 145.017 97.5961 144.686 97.5957 144.34V119.662C97.5961 119.316 97.7333 118.985 97.9773 118.74C98.2212 118.496 98.552 118.358 98.8969 118.358H101.852C102.197 118.358 102.527 118.496 102.771 118.74C103.015 118.985 103.153 119.316 103.153 119.662V144.34C103.153 144.686 103.015 145.017 102.771 145.262C102.527 145.506 102.197 145.643 101.852 145.644Z" fill="white"/>
<path d="M104.287 122.563H90.8618C90.4903 122.563 90.1341 122.415 89.8714 122.152C89.6086 121.888 89.4609 121.531 89.4604 121.159V99.3036C89.4604 97.1471 90.3153 95.079 91.837 93.5541C93.3587 92.0293 95.4225 91.1726 97.5745 91.1726C99.7264 91.1726 101.79 92.0293 103.312 93.5541C104.834 95.079 105.688 97.1471 105.688 99.3036V121.159C105.688 121.531 105.54 121.888 105.278 122.152C105.015 122.415 104.659 122.563 104.287 122.563Z" fill="#BABABA"/>
<path d="M106.308 127.909H99.5015V89.3611L99.6279 89.3957C101.545 89.923 103.236 91.0658 104.443 92.6488C105.649 94.2319 106.305 96.1678 106.308 98.1598V127.909Z" fill="white"/>
<path d="M95.0941 127.909H88.2876V98.1598C88.2909 96.1678 88.9461 94.2319 90.1527 92.6489C91.3593 91.0658 93.0508 89.923 94.9677 89.3957L95.0941 89.3611V127.909Z" fill="white"/>
<path d="M97.4729 86.6517C103.39 86.6517 108.187 81.8448 108.187 75.9152C108.187 69.9856 103.39 65.1787 97.4729 65.1787C91.5556 65.1787 86.7588 69.9856 86.7588 75.9152C86.7588 81.8448 91.5556 86.6517 97.4729 86.6517Z" fill="#FF6464"/>
<path d="M109.586 73.4434C109.586 73.4434 110.187 56.7927 102.379 62.2092C102.379 62.2092 97.8747 47.0631 86.8642 69.7321L83.6611 72.9419C83.6611 72.9419 98.0749 70.9357 111.488 77.1547L109.586 73.4434Z" fill="white"/>
<path d="M97.6362 81.2324C96.9744 81.214 96.1508 81.191 95.5162 80.7265C95.3273 80.5825 95.172 80.3988 95.0614 80.1884C94.9507 79.978 94.8873 79.7458 94.8756 79.5082C94.8641 79.3394 94.8917 79.1701 94.9564 79.0138C95.021 78.8574 95.1208 78.7181 95.248 78.6068C95.5794 78.3262 96.0634 78.2604 96.5849 78.414L96.0446 74.4568L96.4412 74.4023L97.0765 79.0545L96.7452 78.9022C96.3612 78.7257 95.834 78.6358 95.5065 78.9132C95.426 78.9858 95.3634 79.0759 95.3233 79.1767C95.2833 79.2774 95.267 79.386 95.2757 79.4941C95.2854 79.6709 95.333 79.8436 95.4153 80.0003C95.4975 80.1571 95.6125 80.2942 95.7524 80.4024C96.2462 80.7639 96.9027 80.8105 97.6474 80.8314L97.6362 81.2324Z" fill="#545974"/>
<path d="M94.0827 74.7981H91.9263V75.1996H94.0827V74.7981Z" fill="#545974"/>
<path d="M100.889 74.7981H98.7329V75.1996H100.889V74.7981Z" fill="#545974"/>
<path d="M73.5847 108.497C73.2957 108.631 72.9653 108.645 72.6661 108.535C72.367 108.426 72.1236 108.201 71.9895 107.912L65.0807 92.9894C64.9467 92.6998 64.933 92.3688 65.0425 92.069C65.152 91.7693 65.3759 91.5254 65.6649 91.3911C65.9538 91.2567 66.2842 91.2429 66.5833 91.3527C66.8824 91.4624 67.1258 91.6867 67.2599 91.9762L74.1687 106.898C74.3028 107.188 74.3166 107.519 74.207 107.819C74.0975 108.119 73.8736 108.363 73.5847 108.497Z" fill="#545974"/>
<path d="M66.4866 92.4402C66.2742 92.4402 66.0705 92.3557 65.9204 92.2052C65.7702 92.0547 65.6858 91.8506 65.6858 91.6378V81.4162H55.6763C55.4639 81.4162 55.2602 81.3316 55.11 81.1811C54.9599 81.0306 54.8755 80.8265 54.8755 80.6137C54.8755 80.4009 54.9599 80.1968 55.11 80.0463C55.2602 79.8958 55.4639 79.8113 55.6763 79.8113H66.4866C66.699 79.8113 66.9027 79.8958 67.0528 80.0463C67.203 80.1968 67.2874 80.4009 67.2874 80.6137V91.6378C67.2874 91.8506 67.203 92.0547 67.0528 92.2052C66.9027 92.3557 66.699 92.4402 66.4866 92.4402Z" fill="#FF6464"/>
<path d="M66.6758 93.5745C64.9518 94.376 63.0294 94.6473 61.1515 94.3539C59.2737 94.0606 57.5248 93.2158 56.1261 91.9264C54.7274 90.637 53.7416 88.961 53.2934 87.1102C52.8453 85.2594 52.9549 83.317 53.6083 81.5286C54.2618 79.7402 55.4298 78.1862 56.9646 77.063C58.4995 75.9398 60.3322 75.298 62.2311 75.2186C64.1299 75.1392 66.0096 75.6258 67.6325 76.617C69.2554 77.6081 70.5485 79.0593 71.3484 80.7869C72.418 83.1039 72.5267 85.7515 71.6507 88.1489C70.7748 90.5462 68.9856 92.4974 66.6758 93.5745ZM59.5985 78.2883C58.3055 78.8894 57.2194 79.8613 56.4776 81.081C55.7358 82.3007 55.3716 83.7135 55.431 85.1406C55.4905 86.5677 55.9708 87.9452 56.8115 89.0987C57.6521 90.2522 58.8152 91.13 60.1537 91.6212C61.4922 92.1123 62.9459 92.1947 64.3311 91.8578C65.7163 91.521 66.9707 90.7801 67.9357 89.7289C68.9007 88.6777 69.533 87.3633 69.7525 85.9519C69.9721 84.5406 69.7691 83.0957 69.1692 81.8C68.3631 80.064 66.9027 78.7194 65.1085 78.061C63.3142 77.4027 61.3327 77.4844 59.5985 78.2883Z" fill="#545974"/>
</g>
<defs>
<clipPath id="clip0_38_1985">
<rect width="130" height="146" fill="white"/>
</clipPath>
</defs>
</svg>
