<svg width="18" height="18" viewBox="0 0 18 18" fill="none" xmlns="http://www.w3.org/2000/svg">
<g clip-path="url(#clip0_299_1504)">
<path d="M8.25 1.5C11.976 1.5 15 4.524 15 8.25C15 11.976 11.976 15 8.25 15C4.524 15 1.5 11.976 1.5 8.25C1.5 4.524 4.524 1.5 8.25 1.5ZM8.25 13.5C11.1503 13.5 13.5 11.1503 13.5 8.25C13.5 5.349 11.1503 3 8.25 3C5.349 3 3 5.349 3 8.25C3 11.1503 5.349 13.5 8.25 13.5ZM14.0835 14.0835C14.3764 13.7906 14.8512 13.7906 15.1441 14.0834L16.2048 15.1437C16.4979 15.4367 16.4979 15.9118 16.2049 16.2049C15.9118 16.4979 15.4367 16.4979 15.1437 16.2048L14.0834 15.1441C13.7906 14.8512 13.7906 14.3764 14.0835 14.0835Z" fill="#BABABA"/>
</g>
<defs>
<clipPath id="clip0_299_1504">
<rect width="18" height="18" fill="white"/>
</clipPath>
</defs>
</svg>
